<?xml version="1.0"?>
<svg xmlns="http://www.w3.org/2000/svg" xmlns:xlink="http://www.w3.org/1999/xlink" version="1.1" id="Capa_1" x="0px" y="0px" width="512px" height="512px" viewBox="0 0 98.124 98.124" style="enable-background:new 0 0 98.124 98.124;" xml:space="preserve" class=""><g><g>
	<path d="M92.727,63.157c-1.18,0.547-1.137,3.172-2.958,5.723c-2.335,3.269-5.874,3.521-8.086,1.787   c-9.121-7.152,9.048-38.204-3.79-43.623C64.758,21.5,55.633,38.172,48.247,50.856c2.374-13.763,9.587-29.608-2.922-34.795   c-10.969-4.548-25.861,14.91-34.874,40.42c0.149-12.237-10.733-9.546-10.445-6.566c0.187,1.92,3.188,10.692,2.729,28.473   c-0.063,2.54,6.558,7.064,9.139,1.93c4.027-8.011,14.521-38.48,28.534-53.359c-3.496,17.824-5.229,38.386-5.052,50.746   c0.036,2.479,6.223,7.084,9.434,1.696c3.388-5.684,13.339-30.289,27.707-42.675c-5.425,18.34-8.897,38.096,2.855,44.085   c11.896,6.062,21.64-3.554,22.698-11.067C98.571,66.04,96.291,61.506,92.727,63.157z" data-original="#000000" class="active-path" data-old_color="#000000" fill="#F94D6A"/>
</g></g> </svg>
